<?xml version="1.0" encoding="UTF-8" standalone="no"?>
<svg
   height="48"
   viewBox="0 -960 960 960"
   width="48"
   version="1.1"
   id="svg4"
   sodipodi:docname="home_storage_FILL0_wght400_GRAD0_opsz48.svg"
   inkscape:version="1.1.2 (b8e25be833, 2022-02-05)"
   xmlns:inkscape="http://www.inkscape.org/namespaces/inkscape"
   xmlns:sodipodi="http://sodipodi.sourceforge.net/DTD/sodipodi-0.dtd"
   xmlns="http://www.w3.org/2000/svg"
   xmlns:svg="http://www.w3.org/2000/svg">
  <defs
     id="defs8" />
  <sodipodi:namedview
     id="namedview6"
     pagecolor="#ffffff"
     bordercolor="#666666"
     borderopacity="1.0"
     inkscape:pageshadow="2"
     inkscape:pageopacity="0.0"
     inkscape:pagecheckerboard="0"
     showgrid="false"
     inkscape:zoom="16.625"
     inkscape:cx="23.969925"
     inkscape:cy="24.030075"
     inkscape:window-width="1920"
     inkscape:window-height="991"
     inkscape:window-x="-9"
     inkscape:window-y="-9"
     inkscape:window-maximized="1"
     inkscape:current-layer="svg4" />
  <path
     d="m200-120-80-480h720l-80 480H200Zm50-60h460l57-360H193l57 360Zm150-200h160q13 0 21.5-9t8.5-21q0-13-8.5-21.5T560-440H400q-12 0-21 8.5t-9 21.5q0 12 9 21t21 9ZM240-660q-12 0-21-9t-9-21q0-13 9-21.5t21-8.5h480q13 0 21.5 8.5T750-690q0 12-8.5 21t-21.5 9H240Zm80-120q-12 0-21-9t-9-21q0-13 9-21.5t21-8.5h320q13 0 21.5 8.5T670-810q0 12-8.5 21t-21.5 9H320Zm-70 600h460-460Z"
     id="path2"
     style="fill:#ffffff" />
</svg>
