<?xml version="1.0" encoding="UTF-8" standalone="no"?>
<svg
   height="48"
   viewBox="0 96 960 960"
   width="48"
   version="1.1"
   id="svg4"
   sodipodi:docname="note_alt_FILL0_wght400_GRAD0_opsz48.svg"
   inkscape:version="1.1.2 (b8e25be833, 2022-02-05)"
   xmlns:inkscape="http://www.inkscape.org/namespaces/inkscape"
   xmlns:sodipodi="http://sodipodi.sourceforge.net/DTD/sodipodi-0.dtd"
   xmlns="http://www.w3.org/2000/svg"
   xmlns:svg="http://www.w3.org/2000/svg">
  <defs
     id="defs8" />
  <sodipodi:namedview
     id="namedview6"
     pagecolor="#ffffff"
     bordercolor="#666666"
     borderopacity="1.0"
     inkscape:pageshadow="2"
     inkscape:pageopacity="0.0"
     inkscape:pagecheckerboard="0"
     showgrid="false"
     inkscape:zoom="16.625"
     inkscape:cx="23.969925"
     inkscape:cy="24.030075"
     inkscape:window-width="1920"
     inkscape:window-height="991"
     inkscape:window-x="-9"
     inkscape:window-y="-9"
     inkscape:window-maximized="1"
     inkscape:current-layer="svg4" />
  <path
     d="M286 767h60l255-255-59-61-256 256v60Zm333-273 39-39q7-7 7.5-15.5T658 423l-29-28q-8-8-16-7.5t-15 7.5l-38 38 59 61ZM180 936q-24.75 0-42.375-17.625T120 876V276q0-24.75 17.625-42.375T180 216h205q5-35 32-57.5t63-22.5q36 0 63 22.5t32 57.5h205q24.75 0 42.375 17.625T840 276v600q0 24.75-17.625 42.375T780 936H180Zm0-60h600V276H180v600Zm300-617q14 0 24.5-10.5T515 224q0-14-10.5-24.5T480 189q-14 0-24.5 10.5T445 224q0 14 10.5 24.5T480 259ZM180 876V276v600Z"
     id="path2"
     style="fill:#ffffff" />
</svg>
