<?xml version="1.0" encoding="UTF-8" standalone="no"?>
<svg
   height="48"
   viewBox="0 96 960 960"
   width="48"
   version="1.1"
   id="svg4"
   sodipodi:docname="psychology_alt_FILL0_wght400_GRAD0_opsz48.svg"
   inkscape:version="1.1.2 (b8e25be833, 2022-02-05)"
   xmlns:inkscape="http://www.inkscape.org/namespaces/inkscape"
   xmlns:sodipodi="http://sodipodi.sourceforge.net/DTD/sodipodi-0.dtd"
   xmlns="http://www.w3.org/2000/svg"
   xmlns:svg="http://www.w3.org/2000/svg">
  <defs
     id="defs8" />
  <sodipodi:namedview
     id="namedview6"
     pagecolor="#ffffff"
     bordercolor="#666666"
     borderopacity="1.0"
     inkscape:pageshadow="2"
     inkscape:pageopacity="0.0"
     inkscape:pagecheckerboard="0"
     showgrid="false"
     inkscape:zoom="16.625"
     inkscape:cx="23.969925"
     inkscape:cy="24.030075"
     inkscape:window-width="1920"
     inkscape:window-height="991"
     inkscape:window-x="-9"
     inkscape:window-y="-9"
     inkscape:window-maximized="1"
     inkscape:current-layer="svg4" />
  <path
     d="M240 976V804q-57-52-88.5-121.5T120 536q0-150 105-255t255-105q125 0 221.5 73.5T827 441l55 218q4 14-5 25.5T853 696h-93v140q0 24.75-17.625 42.375T700 896H600v80h-60V836h160V636h114l-45-180q-24-97-105-158.5T480 236q-125 0-212.5 86.5T180 533.54q0 64.417 26.324 122.392Q232.649 713.908 281 759l19 18v199h-60Zm257-370Zm-17 130q17 0 28.5-11.5T520 696q0-17-11.5-28.5T480 656q-17 0-28.5 11.5T440 696q0 17 11.5 28.5T480 736Zm-30-128h61q0-25 6.5-40.5T544 530q18-20 35-40.5t17-53.5q0-42-32.5-71T483 336q-40 0-72.5 23T365 419l55 23q7-22 24.5-35.5T483 393q22 0 36.5 12t14.5 31q0 21-12.5 37.5T492 507q-20 21-31 42t-11 59Z"
     id="path2"
     style="fill:#ffffff" />
</svg>
