<?xml version="1.0" encoding="UTF-8" standalone="no"?>
<svg
   height="48"
   width="48"
   version="1.1"
   id="svg4"
   sodipodi:docname="quiz_FILL0_wght400_GRAD0_opsz48.svg"
   inkscape:version="1.1.2 (b8e25be833, 2022-02-05)"
   xmlns:inkscape="http://www.inkscape.org/namespaces/inkscape"
   xmlns:sodipodi="http://sodipodi.sourceforge.net/DTD/sodipodi-0.dtd"
   xmlns="http://www.w3.org/2000/svg"
   xmlns:svg="http://www.w3.org/2000/svg">
  <defs
     id="defs8" />
  <sodipodi:namedview
     id="namedview6"
     pagecolor="#ffffff"
     bordercolor="#666666"
     borderopacity="1.0"
     inkscape:pageshadow="2"
     inkscape:pageopacity="0.0"
     inkscape:pagecheckerboard="0"
     showgrid="false"
     inkscape:zoom="16.541667"
     inkscape:cx="24"
     inkscape:cy="24.030227"
     inkscape:window-width="1920"
     inkscape:window-height="991"
     inkscape:window-x="-9"
     inkscape:window-y="-9"
     inkscape:window-maximized="1"
     inkscape:current-layer="svg4" />
  <path
     d="M27.15 31q.85 0 1.45-.6t.6-1.45q0-.85-.6-1.45t-1.45-.6q-.85 0-1.45.6t-.6 1.45q0 .85.6 1.45t1.45.6Zm-1.25-6.3h2.35q.1-1.45.425-2.15.325-.7 1.625-1.95 1.35-1.3 1.875-2.275.525-.975.525-2.275 0-2.3-1.575-3.75Q29.55 10.85 27 10.85q-1.9 0-3.4 1.025t-2.2 2.875l2.25.95q.55-1.25 1.375-1.9.825-.65 1.975-.65 1.5 0 2.425.85.925.85.925 2.15 0 1-.45 1.75t-1.6 1.6q-1.6 1.45-2 2.325-.4.875-.4 2.875ZM13 38q-1.2 0-2.1-.9-.9-.9-.9-2.1V7q0-1.2.9-2.1.9-.9 2.1-.9h28q1.2 0 2.1.9.9.9.9 2.1v28q0 1.2-.9 2.1-.9.9-2.1.9Zm0-3h28V7H13v28Zm-6 9q-1.2 0-2.1-.9Q4 42.2 4 41V10h3v31h31v3Zm6-37v28V7Z"
     id="path2"
     style="fill:#ffffff" />
</svg>
