<?xml version="1.0" encoding="UTF-8" standalone="no"?>
<svg
   height="48"
   width="48"
   version="1.1"
   id="svg4"
   sodipodi:docname="scoreboard_FILL0_wght400_GRAD0_opsz48.svg"
   inkscape:version="1.1.2 (b8e25be833, 2022-02-05)"
   xmlns:inkscape="http://www.inkscape.org/namespaces/inkscape"
   xmlns:sodipodi="http://sodipodi.sourceforge.net/DTD/sodipodi-0.dtd"
   xmlns="http://www.w3.org/2000/svg"
   xmlns:svg="http://www.w3.org/2000/svg">
  <defs
     id="defs8" />
  <sodipodi:namedview
     id="namedview6"
     pagecolor="#ffffff"
     bordercolor="#666666"
     borderopacity="1.0"
     inkscape:pageshadow="2"
     inkscape:pageopacity="0.0"
     inkscape:pagecheckerboard="0"
     showgrid="false"
     inkscape:zoom="16.625"
     inkscape:cx="24"
     inkscape:cy="24.030075"
     inkscape:window-width="1920"
     inkscape:window-height="991"
     inkscape:window-x="-9"
     inkscape:window-y="-9"
     inkscape:window-maximized="1"
     inkscape:current-layer="svg4" />
  <path
     d="M30.4 29.75q-.7 0-1.225-.525Q28.65 28.7 28.65 28v-8q0-.7.525-1.225.525-.525 1.225-.525h4.95q.7 0 1.225.525.525.525.525 1.225v8q0 .7-.525 1.225-.525.525-1.225.525Zm.75-2.5h3.45v-6.5h-3.45Zm-20.25 2.5v-5.2q0-.7.525-1.225.525-.525 1.225-.525h4.2v-2.05H10.9v-2.5h6.7q.7 0 1.225.525.525.525.525 1.225v3.45q0 .7-.525 1.225-.525.525-1.225.525h-4.2v2.05h5.95v2.5Zm11.85-7.9v-3h2.5v3Zm0 7.3v-3h2.5v3ZM7 40q-1.2 0-2.1-.9Q4 38.2 4 37V11q0-1.2.9-2.1Q5.8 8 7 8h7.5V4h3v4h13V4h3v4H41q1.2 0 2.1.9.9.9.9 2.1v26q0 1.2-.9 2.1-.9.9-2.1.9Zm.5-3.5h15.25v-3h2.5v3H40.5v-25H25.25v3h-2.5v-3H7.5v25Zm0 0v-25 25Z"
     id="path2"
     style="fill:#ffffff" />
</svg>
