<?xml version="1.0" encoding="UTF-8" standalone="no"?>
<svg
   height="48"
   width="48"
   version="1.1"
   id="svg4"
   sodipodi:docname="manage_search_FILL0_wght400_GRAD0_opsz48.svg"
   inkscape:version="1.1.2 (b8e25be833, 2022-02-05)"
   xmlns:inkscape="http://www.inkscape.org/namespaces/inkscape"
   xmlns:sodipodi="http://sodipodi.sourceforge.net/DTD/sodipodi-0.dtd"
   xmlns="http://www.w3.org/2000/svg"
   xmlns:svg="http://www.w3.org/2000/svg">
  <defs
     id="defs8" />
  <sodipodi:namedview
     id="namedview6"
     pagecolor="#ffffff"
     bordercolor="#666666"
     borderopacity="1.0"
     inkscape:pageshadow="2"
     inkscape:pageopacity="0.0"
     inkscape:pagecheckerboard="0"
     showgrid="false"
     inkscape:zoom="16.541667"
     inkscape:cx="24"
     inkscape:cy="24.030227"
     inkscape:window-width="1920"
     inkscape:window-height="991"
     inkscape:window-x="-9"
     inkscape:window-y="-9"
     inkscape:window-maximized="1"
     inkscape:current-layer="svg4" />
  <path
     d="M4 38v-3h20v3Zm0-10.5v-3h10v3ZM4 17v-3h10v3Zm37.9 21-8-8q-1.3 1-2.8 1.5-1.5.5-3.1.5-4.15 0-7.075-2.925T18 22q0-4.15 2.925-7.075T28 12q4.15 0 7.075 2.925T38 22q0 1.6-.5 3.1T36 27.9l8 8ZM28 29q2.9 0 4.95-2.05Q35 24.9 35 22q0-2.9-2.05-4.95Q30.9 15 28 15q-2.9 0-4.95 2.05Q21 19.1 21 22q0 2.9 2.05 4.95Q25.1 29 28 29Z"
     id="path2"
     style="fill:#ffffff" />
</svg>
