<?xml version="1.0" encoding="UTF-8" standalone="no"?>
<svg
   height="48"
   width="48"
   version="1.1"
   id="svg4"
   sodipodi:docname="save_as_FILL0_wght400_GRAD0_opsz48.svg"
   inkscape:version="1.1.2 (b8e25be833, 2022-02-05)"
   xmlns:inkscape="http://www.inkscape.org/namespaces/inkscape"
   xmlns:sodipodi="http://sodipodi.sourceforge.net/DTD/sodipodi-0.dtd"
   xmlns="http://www.w3.org/2000/svg"
   xmlns:svg="http://www.w3.org/2000/svg">
  <defs
     id="defs8" />
  <sodipodi:namedview
     id="namedview6"
     pagecolor="#ffffff"
     bordercolor="#666666"
     borderopacity="1.0"
     inkscape:pageshadow="2"
     inkscape:pageopacity="0.0"
     inkscape:pagecheckerboard="0"
     showgrid="false"
     inkscape:zoom="16.541667"
     inkscape:cx="24"
     inkscape:cy="24.030227"
     inkscape:window-width="1920"
     inkscape:window-height="991"
     inkscape:window-x="-9"
     inkscape:window-y="-9"
     inkscape:window-maximized="1"
     inkscape:current-layer="svg4" />
  <path
     d="M9 42q-1.25 0-2.125-.875T6 39V9q0-1.25.875-2.125T9 6h25.15L42 13.85v12.9l-3 3V15.2L32.8 9H9v30h20.8l-3 3Zm15-6.25q2.15 0 3.675-1.525T29.2 30.55q0-2.15-1.525-3.675T24 25.35q-2.15 0-3.675 1.525T18.8 30.55q0 2.15 1.525 3.675T24 35.75ZM11.65 18.8h17.9v-7.15h-17.9ZM29.5 46v-2.5l11.4-11.4 2.5 2.5L32 46Zm15.2-12.7-2.5-2.5 1.95-1.95q.3-.3.525-.3.225 0 .525.3l1.35 1.35q.3.3.3.625t-.3.625ZM9 39V9v20.75Z"
     id="path2"
     style="fill:#ffffff" />
</svg>
